<?xml version="1.0" encoding="UTF-8" standalone="no"?>
<!DOCTYPE svg PUBLIC "-//W3C//DTD SVG 1.1//EN"
 "http://www.w3.org/Graphics/SVG/1.1/DTD/svg11.dtd">
<!-- Generated by graphviz version 2.43.0 (0)
 -->
<!-- Pages: 1 -->
<svg width="432pt" height="73pt"
 viewBox="0.00 0.00 432.00 72.56" xmlns="http://www.w3.org/2000/svg" xmlns:xlink="http://www.w3.org/1999/xlink">
<g id="graph0" class="graph" transform="scale(0.61 0.61) rotate(0) translate(4 114)">
<polygon fill="white" stroke="transparent" points="-4,4 -4,-114 698.5,-114 698.5,4 -4,4"/>
<!-- SERA&#45;X System&#45;Level Effectiveness -->
<g id="node1" class="node">
<title>SERA&#45;X System&#45;Level Effectiveness</title>
<path fill="lightblue" stroke="black" d="M506.7,-15.51C506.7,-15.51 506.7,-20.49 506.7,-20.49 506.7,-22.97 504.23,-25.69 501.75,-25.92 501.75,-25.92 399.65,-35.53 399.65,-35.53 397.17,-35.77 392.21,-36 389.73,-36 389.73,-36 241.27,-36 241.27,-36 238.79,-36 233.83,-35.77 231.35,-35.53 231.35,-35.53 129.25,-25.92 129.25,-25.92 126.77,-25.69 124.3,-22.97 124.3,-20.49 124.3,-20.49 124.3,-15.51 124.3,-15.51 124.3,-13.03 126.77,-10.31 129.25,-10.08 129.25,-10.08 231.35,-0.47 231.35,-0.47 233.83,-0.23 238.79,0 241.27,0 241.27,0 389.73,0 389.73,0 392.21,0 397.17,-0.23 399.65,-0.47 399.65,-0.47 501.75,-10.08 501.75,-10.08 504.23,-10.31 506.7,-13.03 506.7,-15.51"/>
<text text-anchor="middle" x="315.5" y="-14.3" font-family="Times,serif" font-size="14.00">SERA&#45;X System&#45;Level Effectiveness</text>
</g>
<!-- L1: Model
(raw predictions) -->
<g id="node2" class="node">
<title>L1: Model
(raw predictions)</title>
<path fill="azure" stroke="black" d="M127,-110C127,-110 12,-110 12,-110 6,-110 0,-104 0,-98 0,-98 0,-84 0,-84 0,-78 6,-72 12,-72 12,-72 127,-72 127,-72 133,-72 139,-78 139,-84 139,-84 139,-98 139,-98 139,-104 133,-110 127,-110"/>
<text text-anchor="middle" x="69.5" y="-94.8" font-family="Times,serif" font-size="14.00">L1: Model</text>
<text text-anchor="middle" x="69.5" y="-79.8" font-family="Times,serif" font-size="14.00">(raw predictions)</text>
</g>
<!-- L1: Model
(raw predictions)&#45;&gt;SERA&#45;X System&#45;Level Effectiveness -->
<g id="edge1" class="edge">
<title>L1: Model
(raw predictions)&#45;&gt;SERA&#45;X System&#45;Level Effectiveness</title>
<path fill="none" stroke="black" d="M131.89,-71.99C166.89,-61.89 210.62,-49.27 246.62,-38.88"/>
<polygon fill="black" stroke="black" points="247.92,-42.15 256.56,-36.01 245.98,-35.42 247.92,-42.15"/>
</g>
<!-- L2: Interface
(UI cost, latency) -->
<g id="node3" class="node">
<title>L2: Interface
(UI cost, latency)</title>
<path fill="azure" stroke="black" d="M284,-110C284,-110 169,-110 169,-110 163,-110 157,-104 157,-98 157,-98 157,-84 157,-84 157,-78 163,-72 169,-72 169,-72 284,-72 284,-72 290,-72 296,-78 296,-84 296,-84 296,-98 296,-98 296,-104 290,-110 284,-110"/>
<text text-anchor="middle" x="226.5" y="-94.8" font-family="Times,serif" font-size="14.00">L2: Interface</text>
<text text-anchor="middle" x="226.5" y="-79.8" font-family="Times,serif" font-size="14.00">(UI cost, latency)</text>
</g>
<!-- L2: Interface
(UI cost, latency)&#45;&gt;SERA&#45;X System&#45;Level Effectiveness -->
<g id="edge2" class="edge">
<title>L2: Interface
(UI cost, latency)&#45;&gt;SERA&#45;X System&#45;Level Effectiveness</title>
<path fill="none" stroke="black" d="M249.42,-71.72C260.63,-62.77 274.26,-51.9 286.22,-42.36"/>
<polygon fill="black" stroke="black" points="288.55,-44.98 294.19,-36 284.19,-39.5 288.55,-44.98"/>
</g>
<!-- L3: Human&#45;in&#45;the&#45;Loop
(operator edits) -->
<g id="node4" class="node">
<title>L3: Human&#45;in&#45;the&#45;Loop
(operator edits)</title>
<path fill="azure" stroke="black" d="M482.5,-110C482.5,-110 326.5,-110 326.5,-110 320.5,-110 314.5,-104 314.5,-98 314.5,-98 314.5,-84 314.5,-84 314.5,-78 320.5,-72 326.5,-72 326.5,-72 482.5,-72 482.5,-72 488.5,-72 494.5,-78 494.5,-84 494.5,-84 494.5,-98 494.5,-98 494.5,-104 488.5,-110 482.5,-110"/>
<text text-anchor="middle" x="404.5" y="-94.8" font-family="Times,serif" font-size="14.00">L3: Human&#45;in&#45;the&#45;Loop</text>
<text text-anchor="middle" x="404.5" y="-79.8" font-family="Times,serif" font-size="14.00">(operator edits)</text>
</g>
<!-- L3: Human&#45;in&#45;the&#45;Loop
(operator edits)&#45;&gt;SERA&#45;X System&#45;Level Effectiveness -->
<g id="edge3" class="edge">
<title>L3: Human&#45;in&#45;the&#45;Loop
(operator edits)&#45;&gt;SERA&#45;X System&#45;Level Effectiveness</title>
<path fill="none" stroke="black" d="M381.58,-71.72C370.37,-62.77 356.74,-51.9 344.78,-42.36"/>
<polygon fill="black" stroke="black" points="346.81,-39.5 336.81,-36 342.45,-44.98 346.81,-39.5"/>
</g>
<!-- L4: Scenario
(task success, fairness) -->
<g id="node5" class="node">
<title>L4: Scenario
(task success, fairness)</title>
<path fill="azure" stroke="black" d="M682.5,-110C682.5,-110 524.5,-110 524.5,-110 518.5,-110 512.5,-104 512.5,-98 512.5,-98 512.5,-84 512.5,-84 512.5,-78 518.5,-72 524.5,-72 524.5,-72 682.5,-72 682.5,-72 688.5,-72 694.5,-78 694.5,-84 694.5,-84 694.5,-98 694.5,-98 694.5,-104 688.5,-110 682.5,-110"/>
<text text-anchor="middle" x="603.5" y="-94.8" font-family="Times,serif" font-size="14.00">L4: Scenario</text>
<text text-anchor="middle" x="603.5" y="-79.8" font-family="Times,serif" font-size="14.00">(task success, fairness)</text>
</g>
<!-- L4: Scenario
(task success, fairness)&#45;&gt;SERA&#45;X System&#45;Level Effectiveness -->
<g id="edge4" class="edge">
<title>L4: Scenario
(task success, fairness)&#45;&gt;SERA&#45;X System&#45;Level Effectiveness</title>
<path fill="none" stroke="black" d="M530.45,-71.99C488.86,-61.74 436.75,-48.89 394.25,-38.41"/>
<polygon fill="black" stroke="black" points="395.05,-35.01 384.5,-36.01 393.38,-41.8 395.05,-35.01"/>
</g>
</g>
</svg>
